<?xml version="1.0" standalone="yes"?>

<svg version="1.1" viewBox="0.0 0.0 563.0236220472441 559.0629921259842" fill="none" stroke="none" stroke-linecap="square" stroke-miterlimit="10" xmlns="http://www.w3.org/2000/svg" xmlns:xlink="http://www.w3.org/1999/xlink"><clipPath id="p.0"><path d="m0 0l563.0236 0l0 559.063l-563.0236 0l0 -559.063z" clip-rule="nonzero"></path></clipPath><g clip-path="url(#p.0)"><path fill="#000000" fill-opacity="0.0" d="m0 0l563.0236 0l0 559.063l-563.0236 0z" fill-rule="evenodd"></path><path fill="#2e6bdc" d="m10.291339 277.66666l0 0c0 -150.22144 121.77855 -272.0 272.0 -272.0l0 0c72.138885 0 141.32315 28.65706 192.33304 79.66696c51.009888 51.009895 79.66693 120.19416 79.66693 192.33304l0 0c0 150.22147 -121.778534 272.00003 -271.99997 272.00003l0 0c-150.22147 0 -272.0 -121.778564 -272.0 -272.00003z" fill-rule="evenodd"></path><path fill="#2db34a" d="m158.50131 323.14697l119.5748 -224.85039l119.5748 224.85039z" fill-rule="evenodd"></path><path stroke="#2db34a" stroke-width="1.0" stroke-linejoin="round" stroke-linecap="butt" d="m158.50131 323.14697l119.5748 -224.85039l119.5748 224.85039z" fill-rule="evenodd"></path><path fill="#000000" fill-opacity="0.0" d="m282.29135 549.6667l0.8503723 -296.4095" fill-rule="evenodd"></path><path stroke="#ffffff" stroke-width="24.0" stroke-linejoin="round" stroke-linecap="butt" d="m282.29135 549.6667l0.8503723 -296.4095" fill-rule="evenodd"></path><path fill="#000000" fill-opacity="0.0" d="m474.6244 85.333626l-190.64569 172.97638" fill-rule="evenodd"></path><path stroke="#ffffff" stroke-width="24.0" stroke-linejoin="round" stroke-linecap="butt" d="m474.6244 85.333626l-190.64569 172.97638" fill-rule="evenodd"></path><path fill="#000000" fill-opacity="0.0" d="m89.9583 85.333626l193.16536 172.12598" fill-rule="evenodd"></path><path stroke="#ffffff" stroke-width="24.0" stroke-linejoin="round" stroke-linecap="butt" d="m89.9583 85.333626l193.16536 172.12598" fill-rule="evenodd"></path><path fill="#000000" fill-opacity="0.0" d="m55.204723 -76.01837l455.02362 0l0 599.1496l-455.02362 0z" fill-rule="evenodd"></path><path fill="#ffffff" d="m451.72034 444.98163l-49.1875 -94.21875l-242.81248 0l-49.1875 94.21875l-35.65625 0l187.12498 -357.59375l38.25 0l187.125 357.59375l-35.65625 0zm-170.46875 -326.09375l-105.656235 201.95312l211.06248 0l-105.40625 -201.95312z" fill-rule="nonzero"></path></g></svg>

